<svg width="607" height="24" viewBox="0 0 607 24" fill="none" xmlns="http://www.w3.org/2000/svg">
<path d="M8 8H8.01M2 5.2L2 9.67451C2 10.1637 2 10.4083 2.05526 10.6385C2.10425 10.8425 2.18506 11.0376 2.29472 11.2166C2.4184 11.4184 2.59135 11.5914 2.93726 11.9373L10.6059 19.6059C11.7939 20.7939 12.388 21.388 13.0729 21.6105C13.6755 21.8063 14.3245 21.8063 14.927 21.6105C15.612 21.388 16.2061 20.7939 17.3941 19.6059L19.6059 17.3941C20.7939 16.2061 21.388 15.612 21.6105 14.927C21.8063 14.3245 21.8063 13.6755 21.6105 13.0729C21.388 12.388 20.7939 11.7939 19.6059 10.6059L11.9373 2.93726C11.5914 2.59135 11.4184 2.4184 11.2166 2.29472C11.0376 2.18506 10.8425 2.10425 10.6385 2.05526C10.4083 2 10.1637 2 9.67452 2L5.2 2C4.0799 2 3.51984 2 3.09202 2.21799C2.7157 2.40973 2.40973 2.71569 2.21799 3.09202C2 3.51984 2 4.07989 2 5.2ZM8.5 8C8.5 8.27614 8.27614 8.5 8 8.5C7.72386 8.5 7.5 8.27614 7.5 8C7.5 7.72386 7.72386 7.5 8 7.5C8.27614 7.5 8.5 7.72386 8.5 8Z" stroke="#FF9549" stroke-width="1.5" stroke-linecap="round" stroke-linejoin="round"/>
<path d="M41.2 12C41.8187 12.2453 42.2987 12.6133 42.64 13.104C42.992 13.584 43.168 14.1547 43.168 14.816C43.168 15.456 43.0133 16.016 42.704 16.496C42.3947 16.976 41.9573 17.3493 41.392 17.616C40.8267 17.872 40.1653 18 39.408 18H35.376V6.8H39.088C40.1973 6.8 41.0773 7.06133 41.728 7.584C42.3787 8.096 42.704 8.784 42.704 9.648C42.704 10.192 42.5707 10.6667 42.304 11.072C42.048 11.4667 41.68 11.776 41.2 12ZM37.232 8.352V11.408H38.96C39.5573 11.408 40.0213 11.2747 40.352 11.008C40.6827 10.7307 40.848 10.3467 40.848 9.856C40.848 9.376 40.6827 9.008 40.352 8.752C40.0213 8.48533 39.5573 8.352 38.96 8.352H37.232ZM39.2 16.448C39.8613 16.448 40.368 16.2933 40.72 15.984C41.0827 15.6747 41.264 15.2373 41.264 14.672C41.264 14.096 41.0827 13.6533 40.72 13.344C40.368 13.024 39.8613 12.864 39.2 12.864H37.232V16.448H39.2ZM48.0339 12.304C50.3912 12.304 51.5699 13.2533 51.5699 15.152C51.5699 17.0507 50.3912 18 48.0339 18H44.9939V9.648H46.7539V12.304H48.0339ZM52.9299 18V9.648H54.6899V18H52.9299ZM48.0019 16.576C49.2179 16.576 49.8259 16.1013 49.8259 15.152C49.8259 14.2027 49.2179 13.728 48.0019 13.728H46.7539V16.576H48.0019ZM58.5976 18H56.8376V9.648H62.2456V11.232H58.5976V18ZM66.73 18.208C65.93 18.208 65.2367 18.032 64.65 17.68C64.0633 17.3173 63.61 16.8053 63.29 16.144C62.97 15.4827 62.81 14.7093 62.81 13.824C62.81 12.9387 62.97 12.1707 63.29 11.52C63.61 10.8587 64.0633 10.352 64.65 10C65.2367 9.63733 65.93 9.456 66.73 9.456C67.53 9.456 68.2233 9.63733 68.81 10C69.3967 10.352 69.85 10.8587 70.17 11.52C70.49 12.1707 70.65 12.9387 70.65 13.824C70.65 14.7093 70.49 15.4827 70.17 16.144C69.85 16.8053 69.3967 17.3173 68.81 17.68C68.2233 18.032 67.53 18.208 66.73 18.208ZM66.73 16.736C67.3807 16.736 67.882 16.4907 68.234 16C68.5967 15.4987 68.778 14.7733 68.778 13.824C68.778 12.8853 68.5967 12.1653 68.234 11.664C67.882 11.1627 67.3807 10.912 66.73 10.912C66.0793 10.912 65.5727 11.1627 65.21 11.664C64.858 12.1653 64.682 12.8853 64.682 13.824C64.682 14.7733 64.858 15.4987 65.21 16C65.5727 16.4907 66.0793 16.736 66.73 16.736ZM79.0808 16.512H80.3128V20.304H78.6328V18H72.9848V20.304H71.3048V16.512H71.6088C71.9181 16.512 72.1634 16.4 72.3448 16.176C72.5261 15.952 72.6648 15.5573 72.7608 14.992C72.8568 14.4267 72.9314 13.6107 72.9848 12.544L73.1128 9.648H79.0808V16.512ZM77.3688 16.512V11.12H74.6968L74.5848 13.328C74.5208 14.7467 74.3128 15.808 73.9608 16.512H77.3688ZM84.7203 9.456C86.9496 9.456 88.0643 10.5387 88.0643 12.704V18H86.4643L86.4803 16.832H86.3683C85.7709 17.7493 84.9336 18.208 83.8563 18.208C83.0776 18.208 82.4536 17.984 81.9843 17.536C81.5149 17.0773 81.2803 16.4693 81.2803 15.712C81.2803 14.9013 81.5789 14.2507 82.1763 13.76C82.7843 13.2693 83.7016 12.96 84.9283 12.832L86.3043 12.688C86.2829 12.1013 86.1283 11.6693 85.8403 11.392C85.5629 11.104 85.1309 10.96 84.5443 10.96C84.1283 10.96 83.7016 11.0133 83.2643 11.12C82.8376 11.216 82.4429 11.36 82.0803 11.552V9.968C82.4003 9.82933 82.7949 9.712 83.2643 9.616C83.7336 9.50933 84.2189 9.456 84.7203 9.456ZM84.3683 16.736C84.9016 16.736 85.3549 16.5387 85.7283 16.144C86.1123 15.7387 86.3043 15.1467 86.3043 14.368V13.952L84.9923 14.08C83.7229 14.2187 83.0883 14.6987 83.0883 15.52C83.0883 15.8933 83.2003 16.192 83.4243 16.416C83.6589 16.6293 83.9736 16.736 84.3683 16.736ZM96.0508 18H94.2908V9.648H101.267V18H99.5068V11.12H96.0508V18ZM106.824 18.208C106.024 18.208 105.33 18.032 104.744 17.68C104.157 17.3173 103.704 16.8053 103.384 16.144C103.064 15.4827 102.904 14.7093 102.904 13.824C102.904 12.9387 103.064 12.1707 103.384 11.52C103.704 10.8587 104.157 10.352 104.744 10C105.33 9.63733 106.024 9.456 106.824 9.456C107.624 9.456 108.317 9.63733 108.904 10C109.49 10.352 109.944 10.8587 110.264 11.52C110.584 12.1707 110.744 12.9387 110.744 13.824C110.744 14.7093 110.584 15.4827 110.264 16.144C109.944 16.8053 109.49 17.3173 108.904 17.68C108.317 18.032 107.624 18.208 106.824 18.208ZM106.824 16.736C107.474 16.736 107.976 16.4907 108.328 16C108.69 15.4987 108.872 14.7733 108.872 13.824C108.872 12.8853 108.69 12.1653 108.328 11.664C107.976 11.1627 107.474 10.912 106.824 10.912C106.173 10.912 105.666 11.1627 105.304 11.664C104.952 12.1653 104.776 12.8853 104.776 13.824C104.776 14.7733 104.952 15.4987 105.304 16C105.666 16.4907 106.173 16.736 106.824 16.736ZM120.645 18H118.757V8.48H115.365V6.8H124.037V8.48H120.645V18ZM124.385 18V9.648H125.969L125.953 10.912H126.065C126.299 10.496 126.619 10.1707 127.025 9.936C127.441 9.69067 127.915 9.568 128.449 9.568C128.705 9.568 128.923 9.59467 129.105 9.648V11.264C128.838 11.2107 128.614 11.184 128.433 11.184C127.739 11.184 127.185 11.4293 126.769 11.92C126.353 12.4 126.145 13.0453 126.145 13.856V18H124.385ZM133.064 9.456C135.293 9.456 136.408 10.5387 136.408 12.704V18H134.808L134.824 16.832H134.712C134.115 17.7493 133.277 18.208 132.2 18.208C131.421 18.208 130.797 17.984 130.328 17.536C129.859 17.0773 129.624 16.4693 129.624 15.712C129.624 14.9013 129.923 14.2507 130.52 13.76C131.128 13.2693 132.045 12.96 133.272 12.832L134.648 12.688C134.627 12.1013 134.472 11.6693 134.184 11.392C133.907 11.104 133.475 10.96 132.888 10.96C132.472 10.96 132.045 11.0133 131.608 11.12C131.181 11.216 130.787 11.36 130.424 11.552V9.968C130.744 9.82933 131.139 9.712 131.608 9.616C132.077 9.50933 132.563 9.456 133.064 9.456ZM132.712 16.736C133.245 16.736 133.699 16.5387 134.072 16.144C134.456 15.7387 134.648 15.1467 134.648 14.368V13.952L133.336 14.08C132.067 14.2187 131.432 14.6987 131.432 15.52C131.432 15.8933 131.544 16.192 131.768 16.416C132.003 16.6293 132.317 16.736 132.712 16.736ZM143.854 6.8H145.614V18H143.982L144.014 16.832H143.902C143.636 17.248 143.284 17.584 142.846 17.84C142.409 18.0853 141.908 18.208 141.342 18.208C140.66 18.208 140.062 18.032 139.55 17.68C139.038 17.3173 138.644 16.8053 138.366 16.144C138.1 15.4827 137.966 14.7147 137.966 13.84C137.966 12.9653 138.11 12.1973 138.398 11.536C138.686 10.8747 139.097 10.3627 139.63 10C140.164 9.63733 140.782 9.456 141.486 9.456C141.998 9.456 142.452 9.56267 142.846 9.776C143.252 9.98933 143.588 10.288 143.854 10.672V6.8ZM143.854 13.44C143.854 12.64 143.673 12.0213 143.31 11.584C142.958 11.136 142.473 10.912 141.854 10.912C141.204 10.912 140.702 11.1627 140.35 11.664C140.009 12.1547 139.838 12.8747 139.838 13.824C139.838 14.7733 140.009 15.4987 140.35 16C140.702 16.4907 141.204 16.736 141.854 16.736C142.473 16.736 142.958 16.5173 143.31 16.08C143.673 15.632 143.854 15.008 143.854 14.208V13.44ZM154.847 13.632C154.847 13.8133 154.825 14.0213 154.783 14.256H149.119C149.268 15.8773 150.153 16.688 151.775 16.688C152.66 16.688 153.492 16.4747 154.271 16.048V17.664C153.428 18.0267 152.553 18.208 151.647 18.208C150.239 18.208 149.156 17.824 148.399 17.056C147.652 16.2773 147.279 15.2 147.279 13.824C147.279 12.96 147.439 12.1973 147.759 11.536C148.079 10.8747 148.527 10.3627 149.103 10C149.689 9.63733 150.372 9.456 151.151 9.456C152.313 9.456 153.22 9.824 153.871 10.56C154.521 11.296 154.847 12.32 154.847 13.632ZM151.151 10.864C150.607 10.864 150.164 11.0453 149.823 11.408C149.481 11.7707 149.257 12.288 149.151 12.96H153.071C152.985 12.288 152.783 11.7707 152.463 11.408C152.143 11.0453 151.705 10.864 151.151 10.864ZM161.295 14.624H155.823V13.056H161.295V14.624ZM165.161 18H163.417V11.12H161.817V9.648H165.161V18ZM164.201 8.656C163.881 8.656 163.609 8.54933 163.385 8.336C163.161 8.112 163.049 7.83467 163.049 7.504C163.049 7.17333 163.161 6.90133 163.385 6.688C163.609 6.464 163.881 6.352 164.201 6.352C164.521 6.352 164.793 6.464 165.017 6.688C165.241 6.90133 165.353 7.17333 165.353 7.504C165.353 7.83467 165.241 8.112 165.017 8.336C164.793 8.54933 164.521 8.656 164.201 8.656ZM167.478 18V9.648H169.142L169.11 10.768H169.238C169.516 10.3627 169.878 10.0427 170.326 9.808C170.774 9.57333 171.281 9.456 171.846 9.456C172.7 9.456 173.361 9.728 173.83 10.272C174.3 10.816 174.534 11.5893 174.534 12.592V18H172.774V12.784C172.774 11.536 172.273 10.912 171.27 10.912C170.673 10.912 170.182 11.1253 169.798 11.552C169.425 11.968 169.238 12.5173 169.238 13.2V18H167.478ZM187.8 16.512H189.032V20.304H187.352V18H181.704V20.304H180.024V16.512H180.328C180.637 16.512 180.882 16.4 181.064 16.176C181.245 15.952 181.384 15.5573 181.48 14.992C181.576 14.4267 181.65 13.6107 181.704 12.544L181.832 9.648H187.8V16.512ZM186.088 16.512V11.12H183.416L183.304 13.328C183.24 14.7467 183.032 15.808 182.68 16.512H186.088ZM193.699 18.208C192.899 18.208 192.205 18.032 191.619 17.68C191.032 17.3173 190.579 16.8053 190.259 16.144C189.939 15.4827 189.779 14.7093 189.779 13.824C189.779 12.9387 189.939 12.1707 190.259 11.52C190.579 10.8587 191.032 10.352 191.619 10C192.205 9.63733 192.899 9.456 193.699 9.456C194.499 9.456 195.192 9.63733 195.779 10C196.365 10.352 196.819 10.8587 197.139 11.52C197.459 12.1707 197.619 12.9387 197.619 13.824C197.619 14.7093 197.459 15.4827 197.139 16.144C196.819 16.8053 196.365 17.3173 195.779 17.68C195.192 18.032 194.499 18.208 193.699 18.208ZM193.699 16.736C194.349 16.736 194.851 16.4907 195.203 16C195.565 15.4987 195.747 14.7733 195.747 13.824C195.747 12.8853 195.565 12.1653 195.203 11.664C194.851 11.1627 194.349 10.912 193.699 10.912C193.048 10.912 192.541 11.1627 192.179 11.664C191.827 12.1653 191.651 12.8853 191.651 13.824C191.651 14.7733 191.827 15.4987 192.179 16C192.541 16.4907 193.048 16.736 193.699 16.736ZM208.795 13.664H210.107V15.296H208.795V18H206.971V15.296H201.883V13.504L206.427 6.8H208.795V13.664ZM206.987 8.816H206.891L203.595 13.664H206.987V8.816ZM214.592 11.024C215.414 11.024 216.134 11.168 216.752 11.456C217.382 11.7333 217.867 12.1387 218.208 12.672C218.56 13.1947 218.736 13.8133 218.736 14.528C218.736 15.68 218.352 16.5813 217.584 17.232C216.827 17.8827 215.776 18.208 214.432 18.208C213.408 18.208 212.368 18.0213 211.312 17.648V15.92C212.39 16.304 213.392 16.496 214.32 16.496C215.099 16.496 215.707 16.3253 216.144 15.984C216.592 15.6427 216.816 15.168 216.816 14.56C216.816 13.952 216.587 13.4827 216.128 13.152C215.67 12.8213 215.014 12.656 214.16 12.656C213.328 12.656 212.534 12.736 211.776 12.896L212.304 6.8H218.288V8.432H213.824L213.6 11.104C213.974 11.0507 214.304 11.024 214.592 11.024ZM224.497 18.208C223.58 18.208 222.785 17.9733 222.113 17.504C221.441 17.0347 220.924 16.3627 220.561 15.488C220.198 14.6133 220.017 13.584 220.017 12.4C220.017 11.216 220.198 10.1867 220.561 9.312C220.924 8.43733 221.441 7.76533 222.113 7.296C222.785 6.82667 223.58 6.592 224.497 6.592C225.414 6.592 226.209 6.82667 226.881 7.296C227.553 7.76533 228.07 8.43733 228.433 9.312C228.796 10.1867 228.977 11.216 228.977 12.4C228.977 13.584 228.796 14.6133 228.433 15.488C228.07 16.3627 227.553 17.0347 226.881 17.504C226.209 17.9733 225.414 18.208 224.497 18.208ZM224.497 16.528C225.286 16.528 225.9 16.1653 226.337 15.44C226.785 14.7147 227.009 13.7013 227.009 12.4C227.009 11.0987 226.785 10.0853 226.337 9.36C225.9 8.63467 225.286 8.272 224.497 8.272C223.708 8.272 223.089 8.63467 222.641 9.36C222.204 10.0853 221.985 11.0987 221.985 12.4C221.985 13.7013 222.204 14.7147 222.641 15.44C223.089 16.1653 223.708 16.528 224.497 16.528ZM239.059 18.208C238.142 18.208 237.347 17.9733 236.675 17.504C236.003 17.0347 235.486 16.3627 235.123 15.488C234.761 14.6133 234.579 13.584 234.579 12.4C234.579 11.216 234.761 10.1867 235.123 9.312C235.486 8.43733 236.003 7.76533 236.675 7.296C237.347 6.82667 238.142 6.592 239.059 6.592C239.977 6.592 240.771 6.82667 241.443 7.296C242.115 7.76533 242.633 8.43733 242.995 9.312C243.358 10.1867 243.539 11.216 243.539 12.4C243.539 13.584 243.358 14.6133 242.995 15.488C242.633 16.3627 242.115 17.0347 241.443 17.504C240.771 17.9733 239.977 18.208 239.059 18.208ZM239.059 16.528C239.849 16.528 240.462 16.1653 240.899 15.44C241.347 14.7147 241.571 13.7013 241.571 12.4C241.571 11.0987 241.347 10.0853 240.899 9.36C240.462 8.63467 239.849 8.272 239.059 8.272C238.27 8.272 237.651 8.63467 237.203 9.36C236.766 10.0853 236.547 11.0987 236.547 12.4C236.547 13.7013 236.766 14.7147 237.203 15.44C237.651 16.1653 238.27 16.528 239.059 16.528ZM249.466 18.208C248.548 18.208 247.754 17.9733 247.082 17.504C246.41 17.0347 245.892 16.3627 245.53 15.488C245.167 14.6133 244.986 13.584 244.986 12.4C244.986 11.216 245.167 10.1867 245.53 9.312C245.892 8.43733 246.41 7.76533 247.082 7.296C247.754 6.82667 248.548 6.592 249.466 6.592C250.383 6.592 251.178 6.82667 251.85 7.296C252.522 7.76533 253.039 8.43733 253.402 9.312C253.764 10.1867 253.946 11.216 253.946 12.4C253.946 13.584 253.764 14.6133 253.402 15.488C253.039 16.3627 252.522 17.0347 251.85 17.504C251.178 17.9733 250.383 18.208 249.466 18.208ZM249.466 16.528C250.255 16.528 250.868 16.1653 251.306 15.44C251.754 14.7147 251.978 13.7013 251.978 12.4C251.978 11.0987 251.754 10.0853 251.306 9.36C250.868 8.63467 250.255 8.272 249.466 8.272C248.676 8.272 248.058 8.63467 247.61 9.36C247.172 10.0853 246.954 11.0987 246.954 12.4C246.954 13.7013 247.172 14.7147 247.61 15.44C248.058 16.1653 248.676 16.528 249.466 16.528ZM259.872 18.208C258.955 18.208 258.16 17.9733 257.488 17.504C256.816 17.0347 256.299 16.3627 255.936 15.488C255.573 14.6133 255.392 13.584 255.392 12.4C255.392 11.216 255.573 10.1867 255.936 9.312C256.299 8.43733 256.816 7.76533 257.488 7.296C258.16 6.82667 258.955 6.592 259.872 6.592C260.789 6.592 261.584 6.82667 262.256 7.296C262.928 7.76533 263.445 8.43733 263.808 9.312C264.171 10.1867 264.352 11.216 264.352 12.4C264.352 13.584 264.171 14.6133 263.808 15.488C263.445 16.3627 262.928 17.0347 262.256 17.504C261.584 17.9733 260.789 18.208 259.872 18.208ZM259.872 16.528C260.661 16.528 261.275 16.1653 261.712 15.44C262.16 14.7147 262.384 13.7013 262.384 12.4C262.384 11.0987 262.16 10.0853 261.712 9.36C261.275 8.63467 260.661 8.272 259.872 8.272C259.083 8.272 258.464 8.63467 258.016 9.36C257.579 10.0853 257.36 11.0987 257.36 12.4C257.36 13.7013 257.579 14.7147 258.016 15.44C258.464 16.1653 259.083 16.528 259.872 16.528ZM272.882 13.616V14.624H275.41V15.952H272.882V18H271.01V15.952H269.634V14.624H271.01V13.616H269.634V12.112H271.01V6.8H274.434C275.224 6.8 275.912 6.944 276.498 7.232C277.096 7.50933 277.554 7.90933 277.874 8.432C278.205 8.944 278.37 9.54133 278.37 10.224C278.37 10.9067 278.205 11.504 277.874 12.016C277.554 12.528 277.096 12.9227 276.498 13.2C275.912 13.4773 275.224 13.616 274.434 13.616H272.882ZM272.866 8.352V12.112H274.386C275.058 12.112 275.576 11.952 275.938 11.632C276.312 11.3013 276.498 10.8373 276.498 10.24C276.498 9.632 276.312 9.168 275.938 8.848C275.576 8.51733 275.058 8.352 274.386 8.352H272.866Z" fill="white"/>
<path d="M315 7H310.5C309.837 7 309.201 6.73661 308.732 6.26777C308.263 5.79893 308 5.16304 308 4.5C308 3.83696 308.263 3.20107 308.732 2.73223C309.201 2.26339 309.837 2 310.5 2C314 2 315 7 315 7ZM315 7H319.5C320.163 7 320.799 6.73661 321.268 6.26777C321.737 5.79893 322 5.16304 322 4.5C322 3.83696 321.737 3.20107 321.268 2.73223C320.799 2.26339 320.163 2 319.5 2C316 2 315 7 315 7ZM315 7L315 22M305 14H325M305 10.2L305 18.8C305 19.9201 305 20.4802 305.218 20.908C305.41 21.2843 305.716 21.5903 306.092 21.782C306.52 22 307.08 22 308.2 22L321.8 22C322.92 22 323.48 22 323.908 21.782C324.284 21.5903 324.59 21.2843 324.782 20.908C325 20.4802 325 19.9201 325 18.8V10.2C325 9.0799 325 8.51984 324.782 8.09202C324.59 7.7157 324.284 7.40974 323.908 7.21799C323.48 7 322.92 7 321.8 7L308.2 7C307.08 7 306.52 7 306.092 7.21799C305.716 7.40973 305.41 7.71569 305.218 8.09202C305 8.51984 305 9.07989 305 10.2Z" stroke="#FF9549" stroke-width="1.5" stroke-linecap="round" stroke-linejoin="round"/>
<path d="M347.112 6.8L343.416 12.048L347.592 18H345.416L341.864 12.976H340.248V18H338.376V6.8H340.248V11.312H341.912L345.112 6.8H347.112ZM355.284 13.632C355.284 13.8133 355.263 14.0213 355.22 14.256H349.556C349.706 15.8773 350.591 16.688 352.212 16.688C353.098 16.688 353.93 16.4747 354.708 16.048V17.664C353.866 18.0267 352.991 18.208 352.084 18.208C350.676 18.208 349.594 17.824 348.836 17.056C348.09 16.2773 347.716 15.2 347.716 13.824C347.716 12.96 347.876 12.1973 348.196 11.536C348.516 10.8747 348.964 10.3627 349.54 10C350.127 9.63733 350.81 9.456 351.588 9.456C352.751 9.456 353.658 9.824 354.308 10.56C354.959 11.296 355.284 12.32 355.284 13.632ZM351.588 10.864C351.044 10.864 350.602 11.0453 350.26 11.408C349.919 11.7707 349.695 12.288 349.588 12.96H353.508C353.423 12.288 353.22 11.7707 352.9 11.408C352.58 11.0453 352.143 10.864 351.588 10.864ZM361.141 9.456C361.824 9.456 362.421 9.63733 362.933 10C363.445 10.352 363.834 10.8587 364.101 11.52C364.378 12.1813 364.517 12.9493 364.517 13.824C364.517 14.6987 364.373 15.4667 364.085 16.128C363.797 16.7893 363.386 17.3013 362.853 17.664C362.32 18.0267 361.701 18.208 360.997 18.208C360.485 18.208 360.026 18.1013 359.621 17.888C359.226 17.6747 358.896 17.376 358.629 16.992V20.88H356.869V9.648H358.533L358.501 10.768H358.629C358.906 10.3733 359.258 10.0587 359.685 9.824C360.112 9.57867 360.597 9.456 361.141 9.456ZM360.629 16.736C361.28 16.736 361.776 16.4907 362.117 16C362.469 15.4987 362.645 14.7733 362.645 13.824C362.645 12.8747 362.469 12.1547 362.117 11.664C361.776 11.1627 361.28 10.912 360.629 10.912C360.01 10.912 359.52 11.136 359.157 11.584C358.805 12.0213 358.629 12.64 358.629 13.44V14.208C358.629 15.008 358.805 15.632 359.157 16.08C359.52 16.5173 360.01 16.736 360.629 16.736ZM369.142 9.456C371.371 9.456 372.486 10.5387 372.486 12.704V18H370.886L370.902 16.832H370.79C370.193 17.7493 369.355 18.208 368.278 18.208C367.499 18.208 366.875 17.984 366.406 17.536C365.937 17.0773 365.702 16.4693 365.702 15.712C365.702 14.9013 366.001 14.2507 366.598 13.76C367.206 13.2693 368.123 12.96 369.35 12.832L370.726 12.688C370.705 12.1013 370.55 11.6693 370.262 11.392C369.985 11.104 369.553 10.96 368.966 10.96C368.55 10.96 368.123 11.0133 367.686 11.12C367.259 11.216 366.865 11.36 366.502 11.552V9.968C366.822 9.82933 367.217 9.712 367.686 9.616C368.155 9.50933 368.641 9.456 369.142 9.456ZM368.79 16.736C369.323 16.736 369.777 16.5387 370.15 16.144C370.534 15.7387 370.726 15.1467 370.726 14.368V13.952L369.414 14.08C368.145 14.2187 367.51 14.6987 367.51 15.52C367.51 15.8933 367.622 16.192 367.846 16.416C368.081 16.6293 368.395 16.736 368.79 16.736ZM376.204 18H374.556V9.648H376.972L379.26 16.128H379.356L381.66 9.648H384.012V18H382.364V11.744H382.252L379.996 18H378.556L376.316 11.744H376.204V18ZM388.262 18H386.15V9.648H387.846V15.888H387.958L391.254 9.648H393.366V18H391.67V11.776H391.558L388.262 18ZM400.246 9.648H402.006V18H400.246V14.96C399.531 15.3333 398.779 15.52 397.99 15.52C397.051 15.52 396.342 15.2693 395.862 14.768C395.392 14.256 395.158 13.4987 395.158 12.496V9.648H396.918V12.384C396.918 12.96 397.046 13.3813 397.302 13.648C397.558 13.904 397.968 14.032 398.534 14.032C399.131 14.032 399.702 13.8667 400.246 13.536V9.648ZM411.206 13.632C411.206 13.8133 411.185 14.0213 411.142 14.256H405.478C405.627 15.8773 406.513 16.688 408.134 16.688C409.019 16.688 409.851 16.4747 410.63 16.048V17.664C409.787 18.0267 408.913 18.208 408.006 18.208C406.598 18.208 405.515 17.824 404.758 17.056C404.011 16.2773 403.638 15.2 403.638 13.824C403.638 12.96 403.798 12.1973 404.118 11.536C404.438 10.8747 404.886 10.3627 405.462 10C406.049 9.63733 406.731 9.456 407.51 9.456C408.673 9.456 409.579 9.824 410.23 10.56C410.881 11.296 411.206 12.32 411.206 13.632ZM407.51 10.864C406.966 10.864 406.523 11.0453 406.182 11.408C405.841 11.7707 405.617 12.288 405.51 12.96H409.43C409.345 12.288 409.142 11.7707 408.822 11.408C408.502 11.0453 408.065 10.864 407.51 10.864ZM416.647 18.208C415.281 18.208 414.209 17.8187 413.431 17.04C412.663 16.2613 412.279 15.1893 412.279 13.824C412.279 12.9387 412.455 12.1707 412.807 11.52C413.159 10.8587 413.66 10.352 414.311 10C414.972 9.63733 415.751 9.456 416.647 9.456C417.02 9.456 417.393 9.49333 417.767 9.568C418.14 9.632 418.46 9.72267 418.727 9.84V11.392C418.481 11.264 418.177 11.1573 417.815 11.072C417.452 10.9867 417.095 10.944 416.743 10.944C415.932 10.944 415.297 11.1947 414.839 11.696C414.38 12.1867 414.151 12.896 414.151 13.824C414.151 14.7733 414.375 15.4933 414.823 15.984C415.271 16.4747 415.911 16.72 416.743 16.72C417.127 16.72 417.5 16.672 417.863 16.576C418.236 16.48 418.551 16.3627 418.807 16.224V17.792C418.551 17.92 418.225 18.0213 417.831 18.096C417.447 18.1707 417.052 18.208 416.647 18.208ZM427.473 9.648L424.769 13.6L427.873 18H425.857L423.424 14.448H422.081L422.145 15.616V18H420.385V9.648H422.145V11.936L422.081 12.976H423.409L425.585 9.648H427.473ZM432.199 18.208C431.399 18.208 430.705 18.032 430.119 17.68C429.532 17.3173 429.079 16.8053 428.759 16.144C428.439 15.4827 428.279 14.7093 428.279 13.824C428.279 12.9387 428.439 12.1707 428.759 11.52C429.079 10.8587 429.532 10.352 430.119 10C430.705 9.63733 431.399 9.456 432.199 9.456C432.999 9.456 433.692 9.63733 434.279 10C434.865 10.352 435.319 10.8587 435.639 11.52C435.959 12.1707 436.119 12.9387 436.119 13.824C436.119 14.7093 435.959 15.4827 435.639 16.144C435.319 16.8053 434.865 17.3173 434.279 17.68C433.692 18.032 432.999 18.208 432.199 18.208ZM432.199 16.736C432.849 16.736 433.351 16.4907 433.703 16C434.065 15.4987 434.247 14.7733 434.247 13.824C434.247 12.8853 434.065 12.1653 433.703 11.664C433.351 11.1627 432.849 10.912 432.199 10.912C431.548 10.912 431.041 11.1627 430.679 11.664C430.327 12.1653 430.151 12.8853 430.151 13.824C430.151 14.7733 430.327 15.4987 430.679 16C431.041 16.4907 431.548 16.736 432.199 16.736ZM444.8 13.632C444.8 13.8133 444.779 14.0213 444.736 14.256H439.072C439.221 15.8773 440.107 16.688 441.728 16.688C442.613 16.688 443.445 16.4747 444.224 16.048V17.664C443.381 18.0267 442.507 18.208 441.6 18.208C440.192 18.208 439.109 17.824 438.352 17.056C437.605 16.2773 437.232 15.2 437.232 13.824C437.232 12.96 437.392 12.1973 437.712 11.536C438.032 10.8747 438.48 10.3627 439.056 10C439.643 9.63733 440.325 9.456 441.104 9.456C442.267 9.456 443.173 9.824 443.824 10.56C444.475 11.296 444.8 12.32 444.8 13.632ZM441.104 10.864C440.56 10.864 440.117 11.0453 439.776 11.408C439.435 11.7707 439.211 12.288 439.104 12.96H443.024C442.939 12.288 442.736 11.7707 442.416 11.408C442.096 11.0453 441.659 10.864 441.104 10.864ZM451.988 18H450.228V9.648H457.204V18H455.444V11.12H451.988V18ZM462.761 18.208C461.961 18.208 461.268 18.032 460.681 17.68C460.095 17.3173 459.641 16.8053 459.321 16.144C459.001 15.4827 458.841 14.7093 458.841 13.824C458.841 12.9387 459.001 12.1707 459.321 11.52C459.641 10.8587 460.095 10.352 460.681 10C461.268 9.63733 461.961 9.456 462.761 9.456C463.561 9.456 464.255 9.63733 464.841 10C465.428 10.352 465.881 10.8587 466.201 11.52C466.521 12.1707 466.681 12.9387 466.681 13.824C466.681 14.7093 466.521 15.4827 466.201 16.144C465.881 16.8053 465.428 17.3173 464.841 17.68C464.255 18.032 463.561 18.208 462.761 18.208ZM462.761 16.736C463.412 16.736 463.913 16.4907 464.265 16C464.628 15.4987 464.809 14.7733 464.809 13.824C464.809 12.8853 464.628 12.1653 464.265 11.664C463.913 11.1627 463.412 10.912 462.761 10.912C462.111 10.912 461.604 11.1627 461.241 11.664C460.889 12.1653 460.713 12.8853 460.713 13.824C460.713 14.7733 460.889 15.4987 461.241 16C461.604 16.4907 462.111 16.736 462.761 16.736ZM475.394 9.648L472.69 13.6L475.794 18H473.778L471.346 14.448H470.002L470.066 15.616V18H468.306V9.648H470.066V11.936L470.002 12.976H471.33L473.506 9.648H475.394ZM481.297 9.456C481.98 9.456 482.577 9.63733 483.089 10C483.601 10.352 483.99 10.8587 484.257 11.52C484.534 12.1813 484.673 12.9493 484.673 13.824C484.673 14.6987 484.529 15.4667 484.241 16.128C483.953 16.7893 483.542 17.3013 483.009 17.664C482.476 18.0267 481.857 18.208 481.153 18.208C480.641 18.208 480.182 18.1013 479.777 17.888C479.382 17.6747 479.052 17.376 478.785 16.992V20.88H477.025V9.648H478.689L478.657 10.768H478.785C479.062 10.3733 479.414 10.0587 479.841 9.824C480.268 9.57867 480.753 9.456 481.297 9.456ZM480.785 16.736C481.436 16.736 481.932 16.4907 482.273 16C482.625 15.4987 482.801 14.7733 482.801 13.824C482.801 12.8747 482.625 12.1547 482.273 11.664C481.932 11.1627 481.436 10.912 480.785 10.912C480.166 10.912 479.676 11.136 479.313 11.584C478.961 12.0213 478.785 12.64 478.785 13.44V14.208C478.785 15.008 478.961 15.632 479.313 16.08C479.676 16.5173 480.166 16.736 480.785 16.736ZM489.346 12.304C491.704 12.304 492.882 13.2533 492.882 15.152C492.882 17.0507 491.704 18 489.346 18H486.306V9.648H488.066V12.304H489.346ZM494.242 18V9.648H496.002V18H494.242ZM489.314 16.576C490.53 16.576 491.138 16.1013 491.138 15.152C491.138 14.2027 490.53 13.728 489.314 13.728H488.066V16.576H489.314ZM501.67 18H499.91V11.232H497.366V9.648H504.214V11.232H501.67V18ZM507.684 18H505.572V9.648H507.268V15.888H507.38L510.676 9.648H512.788V18H511.092V11.776H510.98L507.684 18ZM521.987 13.632C521.987 13.8133 521.966 14.0213 521.923 14.256H516.259C516.409 15.8773 517.294 16.688 518.915 16.688C519.801 16.688 520.633 16.4747 521.411 16.048V17.664C520.569 18.0267 519.694 18.208 518.787 18.208C517.379 18.208 516.297 17.824 515.539 17.056C514.793 16.2773 514.419 15.2 514.419 13.824C514.419 12.96 514.579 12.1973 514.899 11.536C515.219 10.8747 515.667 10.3627 516.243 10C516.83 9.63733 517.513 9.456 518.291 9.456C519.454 9.456 520.361 9.824 521.011 10.56C521.662 11.296 521.987 12.32 521.987 13.632ZM518.291 10.864C517.747 10.864 517.305 11.0453 516.963 11.408C516.622 11.7707 516.398 12.288 516.291 12.96H520.211C520.126 12.288 519.923 11.7707 519.603 11.408C519.283 11.0453 518.846 10.864 518.291 10.864ZM532.76 13.616C533.762 13.9573 534.264 14.6507 534.264 15.696C534.264 16.4427 534.008 17.0133 533.496 17.408C532.994 17.8027 532.253 18 531.272 18H527.416V9.648H530.92C531.88 9.648 532.61 9.83467 533.112 10.208C533.624 10.5813 533.88 11.1253 533.88 11.84C533.88 12.6827 533.506 13.2747 532.76 13.616ZM529.16 11.056V13.104H530.776C531.704 13.104 532.168 12.7627 532.168 12.08C532.168 11.3973 531.704 11.056 530.776 11.056H529.16ZM531.112 16.592C532.061 16.592 532.536 16.224 532.536 15.488C532.536 14.752 532.061 14.384 531.112 14.384H529.16V16.592H531.112ZM541.738 18H539.978V9.648H546.954V18H545.194V11.12H541.738V18ZM552.511 18.208C551.711 18.208 551.018 18.032 550.431 17.68C549.845 17.3173 549.391 16.8053 549.071 16.144C548.751 15.4827 548.591 14.7093 548.591 13.824C548.591 12.9387 548.751 12.1707 549.071 11.52C549.391 10.8587 549.845 10.352 550.431 10C551.018 9.63733 551.711 9.456 552.511 9.456C553.311 9.456 554.005 9.63733 554.591 10C555.178 10.352 555.631 10.8587 555.951 11.52C556.271 12.1707 556.431 12.9387 556.431 13.824C556.431 14.7093 556.271 15.4827 555.951 16.144C555.631 16.8053 555.178 17.3173 554.591 17.68C554.005 18.032 553.311 18.208 552.511 18.208ZM552.511 16.736C553.162 16.736 553.663 16.4907 554.015 16C554.378 15.4987 554.559 14.7733 554.559 13.824C554.559 12.8853 554.378 12.1653 554.015 11.664C553.663 11.1627 553.162 10.912 552.511 10.912C551.861 10.912 551.354 11.1627 550.991 11.664C550.639 12.1653 550.463 12.8853 550.463 13.824C550.463 14.7733 550.639 15.4987 550.991 16C551.354 16.4907 551.861 16.736 552.511 16.736ZM564.862 16.512H566.094V20.304H564.414V18H558.766V20.304H557.086V16.512H557.39C557.699 16.512 557.945 16.4 558.126 16.176C558.307 15.952 558.446 15.5573 558.542 14.992C558.638 14.4267 558.713 13.6107 558.766 12.544L558.894 9.648H564.862V16.512ZM563.15 16.512V11.12H560.478L560.366 13.328C560.302 14.7467 560.094 15.808 559.742 16.512H563.15ZM570.502 9.456C572.731 9.456 573.846 10.5387 573.846 12.704V18H572.246L572.262 16.832H572.15C571.552 17.7493 570.715 18.208 569.638 18.208C568.859 18.208 568.235 17.984 567.766 17.536C567.296 17.0773 567.062 16.4693 567.062 15.712C567.062 14.9013 567.36 14.2507 567.958 13.76C568.566 13.2693 569.483 12.96 570.71 12.832L572.086 12.688C572.064 12.1013 571.91 11.6693 571.622 11.392C571.344 11.104 570.912 10.96 570.326 10.96C569.91 10.96 569.483 11.0133 569.046 11.12C568.619 11.216 568.224 11.36 567.862 11.552V9.968C568.182 9.82933 568.576 9.712 569.046 9.616C569.515 9.50933 570 9.456 570.502 9.456ZM570.15 16.736C570.683 16.736 571.136 16.5387 571.51 16.144C571.894 15.7387 572.086 15.1467 572.086 14.368V13.952L570.774 14.08C569.504 14.2187 568.87 14.6987 568.87 15.52C568.87 15.8933 568.982 16.192 569.206 16.416C569.44 16.6293 569.755 16.736 570.15 16.736ZM580.188 9.456C580.87 9.456 581.468 9.63733 581.98 10C582.492 10.352 582.881 10.8587 583.148 11.52C583.425 12.1813 583.564 12.9493 583.564 13.824C583.564 14.6987 583.42 15.4667 583.132 16.128C582.844 16.7893 582.433 17.3013 581.9 17.664C581.366 18.0267 580.748 18.208 580.044 18.208C579.532 18.208 579.073 18.1013 578.668 17.888C578.273 17.6747 577.942 17.376 577.676 16.992V20.88H575.916V9.648H577.58L577.548 10.768H577.676C577.953 10.3733 578.305 10.0587 578.732 9.824C579.158 9.57867 579.644 9.456 580.188 9.456ZM579.676 16.736C580.326 16.736 580.822 16.4907 581.164 16C581.516 15.4987 581.692 14.7733 581.692 13.824C581.692 12.8747 581.516 12.1547 581.164 11.664C580.822 11.1627 580.326 10.912 579.676 10.912C579.057 10.912 578.566 11.136 578.204 11.584C577.852 12.0213 577.676 12.64 577.676 13.44V14.208C577.676 15.008 577.852 15.632 578.204 16.08C578.566 16.5173 579.057 16.736 579.676 16.736ZM588.605 18.208C587.805 18.208 587.112 18.032 586.525 17.68C585.938 17.3173 585.485 16.8053 585.165 16.144C584.845 15.4827 584.685 14.7093 584.685 13.824C584.685 12.9387 584.845 12.1707 585.165 11.52C585.485 10.8587 585.938 10.352 586.525 10C587.112 9.63733 587.805 9.456 588.605 9.456C589.405 9.456 590.098 9.63733 590.685 10C591.272 10.352 591.725 10.8587 592.045 11.52C592.365 12.1707 592.525 12.9387 592.525 13.824C592.525 14.7093 592.365 15.4827 592.045 16.144C591.725 16.8053 591.272 17.3173 590.685 17.68C590.098 18.032 589.405 18.208 588.605 18.208ZM588.605 16.736C589.256 16.736 589.757 16.4907 590.109 16C590.472 15.4987 590.653 14.7733 590.653 13.824C590.653 12.8853 590.472 12.1653 590.109 11.664C589.757 11.1627 589.256 10.912 588.605 10.912C587.954 10.912 587.448 11.1627 587.085 11.664C586.733 12.1653 586.557 12.8853 586.557 13.824C586.557 14.7733 586.733 15.4987 587.085 16C587.448 16.4907 587.954 16.736 588.605 16.736ZM601.238 9.648L598.534 13.6L601.638 18H599.622L597.19 14.448H595.846L595.91 15.616V18H594.15V9.648H595.91V11.936L595.846 12.976H597.174L599.35 9.648H601.238ZM604.949 14.368H603.765L603.413 7.68V6.8H605.301V7.68L604.949 14.368ZM604.357 18.128C604.016 18.128 603.728 18.0107 603.493 17.776C603.258 17.5413 603.141 17.2533 603.141 16.912C603.141 16.5707 603.258 16.2827 603.493 16.048C603.728 15.8133 604.016 15.696 604.357 15.696C604.698 15.696 604.986 15.8133 605.221 16.048C605.456 16.2827 605.573 16.5707 605.573 16.912C605.573 17.2533 605.456 17.5413 605.221 17.776C604.986 18.0107 604.698 18.128 604.357 18.128Z" fill="white"/>
</svg>
